<?xml version="1.0" encoding="UTF-8"?><svg xmlns="http://www.w3.org/2000/svg" viewBox="0 0 86.98 105.68"><defs><style>.l{fill:#fff;}.m{fill:#194f90;}.n{fill:#c8a977;}.o{fill:#0458a0;}</style></defs><g id="a"/><g id="b"><g id="c"><g><path id="d" class="m" d="M49.85,36.75c.35,.04,.71,.08,1.07,.13-.26-1.06-.42-2-.42-2,0,0-.17,.57-.65,1.87ZM15.23,48.27c-.67,.65-1.41,1.39-1.97,1.99-1.3,1.39-2.36,2.73-2.59,3.34,.51-.09,2.32-1.02,3.8-.14-.19,1.02-1.11,5.51-.83,7.5,.28,1.99,.93,3.75,1.44,4.17,.08-.24,.17-.62,.27-1.08-.7-6.37-.45-12.06-.11-15.78ZM83.12,20.11c-.21,.49-.94,2.36-1.18,2.4-.59-.21-.38-1.77-.38-2.05s-.49-.21-.9-.45c.24-.38,1.35-.63,2.19-.76l.73-.07c-.46-.46-6.16-4.4-9.08-5.33-1.81-1.81-5.74-4.54-8.85-6.02-.14-1.99-.51-5.47,.65-6.9-1.48,.32-4.96,1.11-7.37-.93-.32,1.11-.32,2.55-2.96,2.55,0,0-6.25-2.59-7.55-2.32,0,0-.14,.74,.65,1.44-.32,.42-1.3,1.25-3.34,.74-2.04-.51-3.52-.79-4.77-.74,.32,.74,.97,.69,1.81,1.25,.83,.56,1.2,.93-.05,1.57-1.25,.65-5.23,1.62-6.44,2.04-1.2,.42-1.85,1.25-1.85,1.25,0,0,.23,.79,3.43,.56-.56,.6-1.39,1.02-3.52,1.62-2.13,.6-3.98,.79-5.42,2.78,.88,.19,2.73,0,3.34,.28,.6,.28,.97,.65,.83,.97-.14,.32-2.22,2.55-3.98,3.84-1.76,1.3-4.45,3.2-4.63,3.71,.37,.37,1.11,.09,2.22-.14,1.11-.23,2.08,.09,.93,1.9-1.16,1.81-4.4,4.77-5.65,5.98-1.25,1.2-1.53,1.3-1.76,1.67,.37,.32,1.2,.23,1.9,.23s1.34,.09,1.34,.42-.56,1.85-2.22,2.69c-1.67,.83-2.83,1.39-2.83,1.39,0,0,0,.28,1.44,.14,1.2,.09,1.39,.05,.93,1.11-.46,1.07-1.76,2.92-2.73,3.84-.97,.93-4.12,3.8-4.08,5.1,.33-.1,1-.44,1.64-.75,.12-.87,.21-1.35,.22-1.38l.08-.41,.35-.23c2-1.34,4.5-2.43,7.16-3.3,.25-.3,.53-.62,.84-.97,1.76-1.99,4.08-4.35,4.22-4.91-.97-.14-3.52,1.62-4.22,1.95,.05-.83,1.22-2.85,2.55-3.75,1.16-.79,1.62-.88,2.32-1.57,.7-.69,1.16-.79,1.39-1.2-.6-.09-2.59,.79-3.29,.93-.69,.14-1.76-.14-1.44-.51,.32-.37,3.1-2.32,3.84-2.69,.74-.37,1.95-1.39,2.22-1.81-.42,0-1.62,.83-1.99,.93-.37,.09-1.39,.37-1.39,.14s.46-1.34,.69-1.99c.23-.65,2.78-3.2,3.34-3.94,.56-.74,2.08-1.95,2.69-2.64-.6,.09-1.44,.42-1.95,.23,.42-.51,.74-1.3,1.11-1.85,.37-.56,1.76-1.16,2.41-1.39,0,0,.32,1.57,.83,2.27,.51,.69,1.3,1.44,2.13,1.95-1.39,1.9-2.78,7.04-2.78,7.04,1.2-.88,3.1-3.34,4.77-2.96-2.73,4.22-2.18,9.59-1.9,10.33,.32-1.02,.6-1.62,1.11-3.47,.51-1.85,1.58-2.41,2.46-2.55,.05,.79,.05,3.52-.28,4.86-.22,.91-.44,2.94-.56,4.15,.24-.01,.5-.02,.79-.02,.37-.43,.84-.69,1.21-.84-.07,.16-.06,.49,0,.86,.99,.03,2.22,.11,3.6,.23,.16-3.68,2.53-6.89,3.02-7.71,0,0,.23,1.44-.28,2.22-.51,.79-1.11,2.55-1.11,3.52,.65-1.57,2.64-4.17,2.83-4.03,.19,.14,1.02,1.57,1.02,2.41s.74,3.1,1.16,3.57c-.05-.83-.05-3.71,.23-4.35,.09,.28,.42,1.07,.79,2.59,.17,.69,.42,1.88,.65,2.97,2.66,.52,5.35,1.2,7.76,2.07,.12-1.47,.55-2.92,1.09-3.79,.97,.83,3.01,3.89,3.57,4.72-.51,.05-1.34-.83-2.13-1.2-.46-.37-.51,.05-.51,.05,0,0,.31,.56,.77,1.38,1.32,.64,2.49,1.36,3.42,2.17l.3,.26,.04,.39c.12,1.13,.25,2.62,.37,4.36,.79,1.4,1.74,3.45,1.86,4.04-.54-.37-1.14-.8-1.69-1.08,.03,.55,.05,1.12,.07,1.7,.2,.21,.39,.44,.55,.68,.74,1.11,1.07,1.85,1.16,3.01-.43-.41-1.03-1.02-1.65-1.58,.02,.9,.03,1.81,.03,2.74,.38,.86,.75,2.02,.97,3.52,.6,4.21-.51,5.19-.6,5.37-.05,.1-.25-.89-.55-2.05-.2,3.16-.56,6.17-1.18,8.66,.02,.22,.03,.45,.02,.69,.17,0,.34-.01,.5-.01,.37,0,.71,.02,1.03,.06,.78-1.23,1.65-3.36,2.26-6.74,.37-3.61-.42-5.98,.37-5.19,.79,.79,1.48,.74,2.41,4.82,.6-1.81,1.3-4.54-1.11-10.47,1.02,0,1.39,.19,2.22,2.04,.46-2.04-1.48-5.74-4.08-8.34-2.59-2.59-2.32-3.89-1.76-4.45,.56-.56,2.22-.93,3.61-.56-.83-1.85-3.01-2.73-3.71-3.43-.69-.69-2.32-1.2-2.32-3.06,2.13-.37,4.26-.74,5.65-.74s4.26-.46,4.91-1.11c0,0,.09-1.44-.28-3.43-.37-1.99-1.07-3.06-1.25-3.24-.19-.19-1.16-.37-2.5-.09-1.34,.28-1.48,.09-1.48,.09,0,0,.42-2.32,4.59-4.22,.37,.74,.65,.42,.65,.83,.28-.09,.09-.6,.28-1.11,.19,.42,.42,.88,1.11,.51,.69-.37,2.36-5.47,2.36-6.86,0,0-.24,.45-.45,.94Zm-43.37-1.82c-.42-.09-1.44-2.04-1.71-3.24-.28-1.2,.05-3.06,.56-4.08,.88,.14,3.1-.37,3.8-.46,.7-.09,1.85-.19,2.18,.28,.32,.46-.57,1.84-1.48,2.59-1.2-1.02-2.83-1.2-3.71-1.11-1.25,.79-.19,2.78,.05,3.52,.23,.74,.6,1.85,.32,2.5Zm9.91-1.81c-1.02,1.07-3.06,2.59-3.57,3.24,1.25-.83,2.22-.74,2.78-.6,.56,.14,.65,3.01-.05,4.54-.69,1.53-1.44,3.34-1.2,3.89,1.02-2.41,2.32-3.15,3.2-3.47,0,.51-.88,3.1-1.16,3.84-.28,.74-1.58,2.78-2.18,3.38-.14-.65-.51-1.58-.83-1.9-.23,1.76-.79,2.55-1.48,3.15-.69-.79-.79-3.94-.56-5.7,.23-1.76-.23-4.03-.51-5.19,0,.65-.79,1.53-1.25,2.04-.18-.42,.19-2.18,.69-3.24,.51-1.07,1.2-2.22,.93-2.41-.28-.19-1.44,1.44-2.36,2.27-.93,.83-.93,.46-.93-.14s1.85-3.34,3.98-4.86c2.13-1.53,5.98-1.81,6.86-1.81,0,0-1.34,1.9-2.36,2.96Zm.23-4.03c-.88,.28-2.5,.65-3.15,.46,.51-.19,2.08-1.25,3.06-1.71,.97-.46,2.08-.6,3.1-.79,0,0-2.13,1.76-3.01,2.04Zm-1.38-2.56c-.8,.07-1.98,.14-2.02-.17-.03-.31,.76-.87,1.32-1.04,.56-.17,3.06-.42,3.61-.52,.56-.1,.24-.59-.24-1.35-.49-.76-1.91-2.02-1.81-2.33,.1-.31,2.67,.1,3.96,.28,1.29,.17,5.32-1.08,6.46-1.49,1.15-.42,3.65-.63,4.52-.59,0,0-.14,.87-.24,2.01-.1,1.15-.52,2.26-.69,2.4-.21-.14-.38-1.25-.52-1.7-.14-.45-.35-1.53-.69-1.88-1.08,.35-1.15,2.88-1.22,3.65-.83-.28-2.43-.8-3.54-1.11-1.11-.31-2.81-.17-3.54,.14,.42,.03,1.42,.52,2.19,.87,.76,.35,1.08,.66,1.63,1.29-1.15-.28-3.72,.24-4.59,.24s-3.79,1.25-4.59,1.32Zm32.03,14.73c-.63,.24-7.54,2.5-8.79,3.2-1.25,.69-3.3,2.4-2.78,3.58,.52,1.18,1.25,1.6,1.35,1.63,.1,.03,2.54-1.01,3.09-1.32,.56-.31,2.08-1.04,2.88-1.04s1.49-.1,1.6,.03c.1,.14,.76,1.29,1.04,2.33,.28,1.04,.42,2.15,.38,2.5-.35,.24-2.74,1.95-5.38,1.88-2.64-.07-5.49-.49-6.64-2.81-1.15-2.33-.49-4.34-.49-4.34-.76,.49-1.67,.59-3.09-.35-1.42-.94-2.15-1.08-2.33-1.08s-1.25,1.7-2.08,1.91c-.83,.21-4.06-.17-5.28-2.92-1.22-2.74-.76-5.18-.28-6.15,.49-.97,3.82-1.01,5.87-.1-.31-.52-3.75-3.2-4.41-4.69-.66-1.49-1.35-4.48,3.51-6.67,4.79-.76,6.67-.8,9.8,.28,3.13,1.08,3.2,3.37,3.23,3.4,.03,.03-.69,1.63-.24,1.7,.45,.07,2.05-.49,3.4-.28,1.35,.21,4.48,1.08,5.28,2.15,.8,1.08-.69,2.71-2.78,2.85-2.08,.14-7.4-1.25-8.48-1.7-.03,.42,.14,.42,.14,.42,0,0,1.25,.69,1.25,.94s-.59,1.6-.73,2.29c-.14,.69-.52,2.68-.24,3.44,.28-.8,.24-2.22,1.15-3.44,.9-1.22,1.15-1.91,1.15-1.91,0,0,3.23,.35,5.14,.52,1.91,.17,3.61,.07,3.72,.14,.1,.07,.9,1.22,.9,2.01s-.24,1.35-.87,1.6Zm-7.16,6.15c-.45-.24-.24-.94-.24-1.22s.49-.23,.73,.24c.56,1.08-.03,1.22-.49,.97Zm-4.37-14.06c-.67-.69-1.88-1.69-2.57-2.64-.69-.95-.56-1.3-.56-1.3,0,0-2.13,.05-2.94,.05s-1.81,.16-2.83,.32c-.32,1.62,2.15,3.08,2.55,3.24,.39,.16,1.9,1.3,2.06,1.44,.16,.14,.21,.25,.23,.05-.07-.67-.9-1.09-1.34-1.27-.44-.19-1.11-.9-1.2-1.25,.46,.19,4.08,1.16,5.1,1.46,1.02,.3,1.69,.83,2.2,1.18,0,0-.02-.58-.69-1.27Zm-3.27-1.48c-.39-.12-1.11-.14-1.48-.35-.37-.21-.46-.58-.6-.83,0,0,.35,.3,.69,.46,.35,.16,.44-.02,.93,.09,.49,.12,.46,.28,.46,.63Z"/><g id="e"><path class="o" d="M60.99,58.55c-1.48,.09-13.06-.09-13.71-.46-.65-.37-2.04-6.02-2.04-7.32s1.02-8.62,1.95-10.28c.1-.18,.15-.34,.15-.48-1.45-.12-2.76-.18-3.86-.18-.67,0-1.06,.03-1.27,.05h-.09s-1.03,.08-2.62,.25c.02,.11,.06,.23,.14,.36,.93,1.67,1.95,8.99,1.95,10.28s-1.39,6.95-2.04,7.32c-.65,.37-12.23,.56-13.71,.46-1.48-.09-6.67-.56-7.04-.65-.09-.02-.56-.39-.69-.14,.05,1.33,.48,3.21,.61,4.61,5.48-.81,15.46-1.49,18.89-.86,1.09,.2,1.48,.09,2.32,1.11,.81,.99,1.52,7.78,1.49,16.02,.73,.05,1.4,.08,1.98,.08s1.29-.03,2.05-.09c-.04-8.24,.68-15.03,1.49-16.01,.83-1.02,1.22-.91,2.32-1.11,3.44-.63,13.18-.03,18.63,.78,.06-1.43,.09-2.9,.09-4.38-.78,.12-5.54,.54-6.95,.63Zm-17.54,36.56c-1,0-2.27-.05-3.7-.14-.23,1.31-.43,2.35-.54,2.99,1.36,.74,2.79,1.4,4.28,1.98,1.49-.41,2.89-.96,4.2-1.62-.1-.56-.34-1.76-.61-3.35-1.47,.1-2.71,.16-3.62,.16Z"/></g><g id="f"><path class="o" d="M37.08,50.02c-.3,0-.7,.16-1.18,.35h-.03s-.08,.05-.12,.07c.14,.02,.32,.03,.52,.03,.31,0,.64-.03,.9-.08,.07-.01,.08-.03,.09-.04,.03-.06,.04-.17,.02-.29-.06-.02-.13-.03-.2-.03Zm1.68-9.05c-.12-.22-.21-.45-.25-.67l-.11-.63c-1.83,.21-4.4,.5-5.67,.59-2.08,.14-12.83,3.94-14.04,4.26l-1.67,15.61h.5c-.04-.61-.07-1.21-.09-1.82v-.27l.12-.24c.12-.22,.48-.9,1.21-.9h.12l.14,.03c.43,.08,5.32,.52,6.86,.62,.13,0,.5,.02,1.49,.02,4.1,0,10.17-.18,11.58-.38,.52-1.05,1.62-5.34,1.62-6.43,0-1.36-1.04-8.4-1.82-9.8Zm-.81,11c-.21,.09-.53,.15-1.42,.15-.18,0-.36,0-.52,0-.11,0-.21,0-.29,0-.17,0-.2,.02-.33,.22l-.33,.5-.5-.33-.07-.05c-.12-.08-.24-.16-.34-.27-.24,.27-.5,.53-.79,.75-.58,.45-1.18,.69-1.66,.81,.1,.12,.16,.25,.2,.38,.47,.08,.9,.24,.99,.72,.07,.41-.22,.73-.49,.88l-.13,.07h-.15s-1.7,.01-2.91,.01c-1.08,0-1.18,0-1.23-.01-.13-.01-.8-.12-.8-1.04,0-.56,.5-.68,1.07-.71,.06-.13,.14-.24,.22-.32,0-.05,0-.09,0-.14l-.09-.02c-.22-.05-.52-.12-.9-.26-.95-.34-1.99-1.75-2.27-2.15-.61-.55-1.7-.98-2.53-.98h-.89l.33-.83c.17-.43,.71-.76,1.27-.94-.1-.26-.18-.59-.18-.98,0-.58,.24-.86,.4-1.04,.11-.13,.17-.19,.17-.52l.02-1.05,.9,.55c.23,.14,.38,.36,.49,.59,.3,.02,.51,.23,.62,.63,.16,.57-.18,1.2-.51,1.73l-.03,.04c.17,.03,.33,.06,.48,.09l.2,.04c.43-.37,.94-.55,1.36-.7,.16-.06,.32-.11,.44-.17,.32-.15,.67-.21,.97-.25,0-.03,0-.06,.01-.09h-.01v-1.55l.62,.02h.18s.04-.04,.06-.06c.14-.15,.34-.24,.55-.24,.25,0,.45,.1,.59,.25h.8v1.3c.08,.08,.16,.2,.18,.36,.95,.2,1.82,.6,2.62,1.21,.52-.2,1.21-.36,1.45-.42,.22-.05,.48-.08,.75-.08,.38,0,1.65,.07,2.28,.91l.03,.04,.02,.05c.32,.65,.38,1.25,.19,1.78-.25,.68-.85,1-1.09,1.1Z"/></g><g id="g"><path class="o" d="M68.87,61.97c0,.12,0,.24-.01,.36l-.04,1.11-1.1-.16c-4.04-.6-9.99-1.03-14.14-1.03-1.84,0-3.28,.09-4.16,.25-.18,.03-.35,.06-.5,.08-.68,.1-.76,.12-1.22,.68-.48,.74-1.3,6.46-1.26,15.3,6.12-.57,15.72-2.45,19.13-3.71,.3-.11,.61-.2,.91-.3,1.39-4.39,2.28-8.21,2.38-9.03,.12-.98,.08-2.46,.02-3.55Zm-7.07,11.91l-.12-.45-.1-.38h-.59l-.1,.38-.11,.45h-2.66l.11-.33c-.08,.05-.14,.12-.23,.16-.34,.17-.75,.26-1.23,.26-.57,0-1.05-.1-1.44-.31-.4-.21-.75-.58-1.02-1.08-.18-.32-.27-.72-.33-1.15-.38,.39-.92,.59-1.61,.59h-.13v1.87h-2.54v-6.24h2.82c.66,0,1.17,.2,1.53,.6,.14,.16,.25,.35,.33,.55,.07-.12,.15-.25,.24-.35,.5-.59,1.2-.88,2.07-.88,.69,0,1.25,.18,1.67,.52,.41,.34,.71,.83,.89,1.48l.12,.41,.62-1.91,.13-.42h2.33l.13,.42,1.63,5.03,.25,.79h-2.69Zm-13.22,23.78l.09,.47,.12,.64c1.68-1.09,3.59-2.7,5.5-4.51-2.23,.27-4.36,.48-6.21,.62,.2,1.17,.38,2.13,.51,2.77Zm-.8,1.72c-.45,.22-.91,.42-1.37,.61,.42-.14,.88-.35,1.37-.61Z"/></g><g id="h"><path class="o" d="M69.75,43.91c-6.11-5.28-23.76-6.95-27.79-6.53,0,0-17.09,1.11-25.15,6.53-.68,3.51-2.23,17.1,1.48,30.16,.93,.17,1.89,.42,2.85,.78h0c-.04-.13-.09-.26-.13-.4-3.52-11.44-2.7-23.92-1.92-29.01,7.74-4.51,22.88-5.55,23.04-5.56h.09c.21-.03,.6-.06,1.27-.06,6.04,0,18.69,1.81,23.89,5.41,.89,9.28,.99,23.77-1.47,29.5,.99-.34,1.97-.58,2.92-.72,2.34-7.85,1.69-22.98,.93-30.09Zm-26.26,56.02c-3.56-1.38-6.75-3.22-9.58-5.48-1.44-.16-2.92-.34-4.41-.55,3.81,3.75,8.41,6.66,13.85,8.65,5.9-1.42,10.49-4.76,14.08-8.7-1.36,.19-2.72,.36-4.03,.51-2.75,2.48-6.01,4.5-9.91,5.57Z"/></g><path id="i" class="n" d="M38.32,49.35c-.46-.63-1.69-.76-2.41-.6-.72,.16-1.39,.37-1.67,.53-.28-.23-1.39-1.2-3.22-1.41-.05-.21,.21-.37,.05-.46-.21,0-.65-.02-.65-.02v-.67h.51v-.39h-.58s0-.25-.21-.25-.19,.32-.19,.32l-.63-.02v.32h.51l-.02,.72s-.49-.07-.49,0c0,0,.07,.51,.19,.49-.19,.07-.95,.02-1.51,.28-.56,.25-1.34,.39-1.85,.97-.51-.07-1.53-.35-2.15-.25-.63,.09-1.21,.42-1.32,.69,.98,0,2.26,.49,2.99,1.18,0,0,1.15,1.67,2.02,1.98,.87,.31,1.32,.24,1.35,.52,.03,.28,.06,.02,.03,.28-.02,.25-.02,.3,.14,.39-.19,.16-.49,.14-.49,.69-.25,0-.95,0-.95,.12s0,.42,.25,.44c.25,.02,4.08,0,4.08,0,0,0,.21-.12,.19-.25-.02-.14-.25-.21-.9-.28-.05-.32-.05-.6-.39-.65,.02-.14,.07-.28,.07-.35s-.23-.39-.23-.39c0,0,1.11,0,2.15-.81,1.04-.81,1.78-2.29,2.66-2.64,.88-.35,1.51-.6,2.13-.19,.19,.44,.21,1.2-.49,1.34-.69,.14-1.71,.14-2.18-.09-.51,.12-.67,.39-.63,.65,.05,.26,.12,.28,.39,.46,.19-.28,.37-.49,.83-.49s1.67,.05,1.99-.09c.32-.14,1.27-.69,.6-2.06Zm-13.75-.58s.02-.38,.16-.63c.14-.24,.64-.96,.52-1.39-.12-.43-.14,0-.26,.16-.12,.16-.63,.54-.63,.71-.14-.14,.3-.63,.4-.73,.1-.1-.05-.82-.36-1.01-.02,1.02-.57,.78-.57,1.55s.4,1.23,.45,1.35c.14-.03,.3-.02,.3-.02Z"/><path class="m" d="M35.91,66.12h-3.45v-3.27h-3.32v3.27h-4.52v3.11h4.52v8.2h3.32v-8.2h4.45v-3.11h-1Zm.5,1v1.61h-4.45v8.2h-2.32v-8.2h-4.52v-2.11h4.52v-3.26h2.32v3.26h4.45v.5Z"/><polygon id="j" class="n" points="35.91 67.12 31.46 67.12 31.46 63.85 30.14 63.85 30.14 67.12 25.63 67.12 25.63 68.23 30.14 68.23 30.14 76.43 31.46 76.43 31.46 68.23 35.91 68.23 35.91 67.12"/><path class="m" d="M65.27,47.46l-6.62-3.2-.34-.16-.36,.1s-1.41,.39-2.28,.48c-1.01,.1-1.59,.56-2.03,1.01-.21-.05-.42-.08-.64-.08-.69,0-1.21,.27-1.68,.51-.18,.09-.34,.18-.51,.24-1.04,.42-2.92,2.5-3.67,3.38l-.69,.8,.84,.65,6.21,4.77,.55,.43,.59-.37c.19-.12,1.86-1.18,2.65-1.92,.52-.49,1.18-1.06,1.65-1.45l.21,.47,.99-.69s.25-.17,.54-.36l.44-.28,.03-.02,.29-.18v-.02l.56-.36-.26-.19c.29-.34,.82-.67,1.12-.75,1.25-.18,2.44-1,2.57-1.09l1.38-.98-1.53-.74Zm-.15,1.31s-1.2,.84-2.35,1.01h-.05c-.43,.12-1.04,.52-1.38,.92l-.35,.41,.11,.08-.23,.15-.03,.02-.44,.28c-.11,.07-.46,.31-.57,.38h.01l-.5,.33-.23-.51-.51,.41c-.5,.41-1.17,1-1.68,1.47-.56,.53-1.74,1.33-2.58,1.86l-.3,.19-.28-.21-6.21-4.77-.42-.32,.35-.4c1.51-1.74,2.84-2.99,3.48-3.24,.19-.08,.37-.17,.55-.26,.44-.22,.89-.46,1.45-.46,.17,0,.35,.02,.51,.06l.28,.07,.2-.21c.38-.4,.86-.78,1.72-.86,.91-.09,2.31-.48,2.37-.49l.18-.05,.17,.08,6.62,3.2,.76,.37-.69,.49Z"/><path id="k" class="n" d="M58.21,45.16s-1.48,.42-2.45,.51c-.87,.08-1.26,.54-1.7,1.04l6.51,4.23,.05-.03c.32-.79,1.39-1.48,2.04-1.62,1.07-.14,2.18-.93,2.18-.93l-6.62-3.2Zm-4.31,1.71c-1.16-.65-1.81,.05-2.73,.42-.93,.37-3.29,3.1-3.29,3.1l6.21,4.77s1.76-1.11,2.5-1.81c.74-.69,2.13-1.9,2.45-2.04,.32-.14,.51,.28,.51,.28,0,0,.31-.21,.65-.44-1.73-1.24-4.36-3-6.3-4.29h0Z"/><g><polygon class="l" points="60.82 71.36 61.77 71.36 61.29 69.55 60.82 71.36"/><path class="l" d="M52.04,69.27h-.38v1.12h.33c.26,0,.44-.05,.54-.16,.1-.1,.16-.24,.16-.4s-.05-.29-.14-.4c-.09-.11-.26-.16-.51-.16Z"/><path class="n" d="M52.53,68.25h-2.22v5.03h1.34v-1.87h.73c.54,0,.94-.14,1.2-.43,.26-.29,.39-.68,.39-1.19s-.12-.88-.36-1.14c-.24-.27-.6-.4-1.09-.4Zm0,1.99c-.1,.1-.29,.16-.54,.16h-.33v-1.12h.38c.25,0,.42,.05,.51,.16,.09,.11,.14,.24,.14,.4s-.05,.3-.16,.4Z"/><path class="n" d="M57.28,71.95c-.13,.17-.32,.25-.58,.25s-.47-.1-.61-.31c-.15-.21-.22-.59-.22-1.15,0-.45,.06-.78,.18-.99,.16-.28,.39-.43,.7-.43,.13,0,.25,.03,.36,.1,.11,.06,.2,.16,.27,.28,.05,.07,.09,.18,.13,.34l1.18-.31c-.15-.53-.38-.93-.7-1.18-.31-.26-.74-.38-1.29-.38-.7,0-1.24,.22-1.62,.67-.38,.45-.57,1.09-.57,1.92,0,.62,.11,1.14,.32,1.54,.22,.4,.47,.68,.77,.84,.3,.16,.68,.24,1.15,.24,.39,0,.71-.07,.96-.2,.25-.13,.46-.32,.63-.58,.17-.26,.29-.58,.37-.96l-1.17-.41c-.06,.32-.15,.56-.28,.73Z"/><path class="n" d="M62.04,68.25h-1.46l-1.63,5.03h1.37l.21-.83h1.52l.22,.83h1.4l-1.63-5.03Zm-1.22,3.12l.47-1.81,.48,1.81h-.95Z"/></g><path class="o" d="M77.11,85.69c-1.57-2.78-3.24-7.41-3.24-9.17s-3.71-2.32-7.97-.74c-4.11,1.52-16.96,3.95-22.52,3.95s-18.48-2.43-22.59-3.95c-4.26-1.57-7.97-1.02-7.97,.74s-1.67,6.39-3.24,9.17c-1.57,2.78-2.59,4.91-2.59,4.91,0,0,2.04-2.59,9.54-.28,7.14,2.2,21.37,3.79,26.92,3.79,4.76,0,19.57-1.58,26.72-3.79,7.5-2.32,9.82,.09,9.82,.09,0,0-1.3-1.95-2.87-4.72Zm-7.24,3.68c-6.88,2.12-21.65,3.74-26.42,3.74-5.71,0-19.71-1.61-26.63-3.74-2.16-.67-4.11-1.01-5.78-1.01-.72,0-1.34,.06-1.87,.16,.37-.69,.8-1.48,1.28-2.34,1.56-2.75,3.37-7.57,3.37-9.67,0-.23,.69-.67,2.27-.67,1.3,0,2.84,.31,4.35,.86,4.28,1.58,17.33,4.01,22.94,4.01s18.59-2.43,22.87-4.01c1.51-.56,3.05-.86,4.35-.86,1.58,0,2.27,.44,2.27,.67,0,2.09,1.81,6.91,3.37,9.67,.47,.83,.92,1.59,1.31,2.24-.48-.07-1.02-.11-1.62-.11-1.76,0-3.8,.35-6.06,1.05Z"/><path class="n" d="M43.55,82.89c5.66,0,18.72-2.03,23.07-3.34,1.4-.42,3.96-1.18,5.14-1.18,.11,0,.22,0,.35-.01-.11-.49-.18-.94-.22-1.35-.22-.07-.63-.16-1.29-.16-1.18,0-2.6,.28-4,.8-4.35,1.61-17.56,4.07-23.22,4.07s-18.94-2.46-23.29-4.07c-1.4-.52-2.82-.8-4-.8-.66,0-1.07,.09-1.29,.16-.03,.36-.09,.75-.18,1.17,1.35,.14,4.09,1.05,5.38,1.44,4.35,1.3,17.87,3.27,23.55,3.27Zm31.82,3.79c-.11-.2-.23-.41-.35-.64-1.63,.26-3.56,.97-5.42,1.43-6.8,1.7-21.41,3.47-26.13,3.47-5.65,0-19.57-1.63-26.4-3.34-1.78-.45-3.75-1.31-5.37-1.66-.13,.26-.26,.5-.39,.72-.13,.23-.26,.45-.38,.68,.03,0,.07,0,.1,0,1.77,0,3.82,.35,6.08,1.05,6.84,2.11,20.69,3.7,26.33,3.7,4.72,0,19.33-1.6,26.13-3.7,2.27-.7,4.34-1.07,6.16-1.09-.12-.21-.25-.43-.37-.64Z"/><g><path class="m" d="M82.47,99.75c.06,.53,.1,1.03,.1,1.48,0,1.74,0,2.85-.28,4.45,1.04-.42,3.34-2.64,3.82-3.4,.41-.65,1-1.23,.84-1.99-.41-.49-3.95-1.08-4.48-.53Z"/><path class="m" d="M85.31,95.88c-1.39-2.43-3.61-5.28-4.24-6.39-.63-1.11-1.39-3.34-1.39-3.68s-.35-.56-1.67-1.11c-.14-.06-.26-.1-.38-.14,.12,.22,.23,.44,.35,.64,.91,1.61,2.36,3.62,2.98,4.88,.45,.91,.86,2.09-.42,3.77-.84,1.1-2.42,2.15-3.69,3-.57,.38-1.11,.74-1.39,.98-.97,.83-2.07,1.95-2.34,2.32-.04,.06-.1,.12-.15,.17,.92,.13,2.57-.08,3.51-.33,1.32-.35,5.7-1.18,7.16-1.18s2.36,.42,3.27,.69c-.14-.97-.21-1.18-1.6-3.61Z"/><path class="m" d="M79.99,91.45c-.77-.36-1.76-1.13-4.06-1.13-1.56,0-3.4,.32-5.47,.96-.05,.01-.1,.03-.14,.04,.41,1.07,.75,2.19,1.03,2.82,.49,1.11,.83,4.24,.97,5.42,.35-.49,1.53-1.67,2.5-2.5,.97-.83,3.82-2.36,4.93-3.82,.47-.62,.63-1.09,.62-1.53-.14-.09-.28-.22-.39-.26Z"/></g><g><path class="m" d="M4.51,99.75c-.06,.53-.1,1.03-.1,1.48,0,1.74,0,2.85,.28,4.45-1.04-.42-3.33-2.64-3.82-3.4-.41-.65-1-1.23-.84-1.99,.41-.49,3.96-1.08,4.48-.53Z"/><path class="m" d="M1.67,95.88c1.39-2.43,3.61-5.28,4.24-6.39,.63-1.11,1.39-3.34,1.39-3.68s.35-.56,1.67-1.11c.14-.06,.26-.1,.38-.14-.12,.22-.23,.44-.35,.64-.91,1.61-2.36,3.62-2.98,4.88-.45,.91-.86,2.09,.42,3.77,.84,1.1,2.42,2.15,3.69,3,.57,.38,1.11,.74,1.39,.98,.97,.83,2.07,1.95,2.34,2.32,.04,.06,.1,.12,.15,.17-.92,.13-2.57-.08-3.51-.33-1.32-.35-5.7-1.18-7.16-1.18s-2.36,.42-3.27,.69c.14-.97,.21-1.18,1.6-3.61Z"/><path class="m" d="M6.99,91.45c.77-.36,1.76-1.13,4.06-1.13,1.56,0,3.4,.32,5.47,.96,.05,.01,.1,.03,.14,.04-.41,1.07-.75,2.19-1.03,2.82-.49,1.11-.83,4.24-.97,5.42-.35-.49-1.53-1.67-2.5-2.5-.97-.83-3.82-2.36-4.93-3.82-.47-.62-.63-1.09-.62-1.53,.14-.09,.28-.22,.39-.26Z"/></g><g><path class="m" d="M15.4,83.06c-.17,.59-.26,.88-.43,1.47-.08,.29-.13,.47-.12,.55,0,.08,.02,.15,.07,.21,.04,.06,.14,.11,.3,.16-.02,.06-.02,.09-.04,.15-.69-.2-1.03-.3-1.71-.51l.04-.14c.16,.05,.27,.06,.34,.03,.07-.03,.13-.08,.17-.14,.04-.07,.11-.24,.2-.53,.41-1.37,.62-2.06,1.04-3.43,.09-.29,.13-.47,.13-.55,0-.08-.02-.15-.06-.21-.04-.06-.13-.11-.28-.16,.02-.06,.03-.09,.04-.14,.55,.17,.83,.25,1.39,.42,.46,.13,.75,.36,.87,.69,.12,.33,.13,.7,.02,1.1-.1,.35-.24,.62-.44,.83-.2,.21-.43,.32-.69,.35-.17,.02-.45-.03-.82-.14Zm.76-2.59c-.27,.92-.4,1.37-.67,2.29,.05,.02,.09,.04,.12,.04,.2,.06,.38,0,.54-.15,.16-.16,.3-.44,.41-.83,.11-.39,.14-.7,.09-.91-.05-.21-.18-.35-.39-.41-.04-.01-.06-.02-.1-.03Z"/><path class="m" d="M18.43,83.88c-.16,.6-.23,.9-.39,1.5-.07,.29-.11,.47-.11,.55,0,.08,.03,.15,.07,.21,.05,.06,.15,.11,.3,.15-.01,.06-.02,.09-.04,.15-.7-.18-1.04-.27-1.74-.46,.02-.06,.02-.09,.04-.15,.16,.04,.27,.05,.34,.02,.07-.03,.12-.08,.17-.15,.04-.07,.1-.25,.18-.53,.37-1.38,.56-2.08,.93-3.46,.08-.29,.12-.47,.11-.55,0-.08-.02-.15-.06-.21-.04-.06-.14-.11-.28-.15,.02-.06,.02-.09,.04-.15,.6,.16,.89,.24,1.49,.4,.39,.1,.66,.21,.82,.35,.16,.13,.27,.34,.32,.6,.06,.27,.05,.57-.03,.89-.09,.4-.26,.7-.5,.92-.15,.14-.34,.22-.56,.25,.14,.8,.21,1.21,.36,2.01,.05,.26,.09,.43,.12,.49,.05,.1,.12,.16,.21,.19l-.03,.15c-.43-.1-.64-.15-1.07-.26-.2-1.08-.29-1.63-.47-2.71-.09-.02-.13-.03-.22-.06Zm.68-2.62c-.24,.94-.36,1.4-.61,2.34l.14,.04c.23,.06,.4,.07,.53,.03,.13-.04,.25-.14,.36-.3,.11-.16,.2-.38,.27-.66,.1-.41,.12-.72,.05-.95-.07-.22-.23-.37-.48-.43-.1-.03-.15-.04-.25-.07Z"/><path class="m" d="M23.31,81.87c.48,.1,.89,.41,1.11,1.01,.22,.6,.26,1.3,.1,2.11-.13,.69-.38,1.27-.73,1.74-.47,.63-1.02,.88-1.64,.75-.62-.13-1.02-.57-1.21-1.3-.15-.58-.13-1.22,.03-1.94,.19-.8,.51-1.42,.96-1.88,.45-.46,.93-.58,1.38-.49Zm-.03,.26c-.3-.06-.58,.14-.84,.61-.22,.38-.41,.96-.59,1.74-.2,.92-.25,1.62-.15,2.11,.07,.34,.24,.54,.5,.59,.17,.04,.33,0,.48-.11,.18-.14,.35-.39,.51-.74,.16-.36,.3-.84,.42-1.44,.15-.72,.21-1.26,.21-1.63,0-.37-.06-.64-.15-.82-.09-.17-.22-.27-.38-.31Z"/><path class="m" d="M28.72,82.94l-.02,.15c-.12,.01-.25,.1-.37,.27-.09,.12-.24,.42-.45,.9-.72,1.59-1.09,2.39-1.86,3.97h-.08c-.17-1.83-.25-2.73-.38-4.54-.04-.55-.07-.87-.1-.97-.03-.1-.1-.17-.23-.22,.01-.06,.02-.09,.03-.15,.62,.12,.94,.18,1.56,.28-.01,.06-.02,.09-.03,.15h-.05c-.14-.03-.24-.02-.3,.03-.04,.03-.07,.09-.09,.17,0,.05-.01,.11-.01,.17,0,.07,.01,.25,.04,.55,.09,1.13,.14,1.7,.24,2.83,.43-.92,.64-1.38,1.06-2.31,.13-.28,.2-.47,.24-.56,.03-.1,.06-.18,.07-.25,.01-.08,.01-.15,0-.22-.02-.07-.05-.12-.09-.16-.06-.06-.15-.09-.26-.11l.02-.15c.43,.07,.64,.1,1.07,.17Z"/><path class="m" d="M29.86,88.53l-.02,.15c-.72-.1-1.09-.15-1.81-.26,0-.06,.01-.09,.02-.15,.05,0,.07,.01,.11,.02,.1,.02,.19,0,.25-.05,.05-.03,.09-.09,.13-.18,.03-.06,.06-.23,.1-.5,.21-1.44,.32-2.16,.53-3.59,.04-.28,.06-.45,.05-.53,0-.07-.03-.14-.08-.2s-.11-.1-.21-.11c-.04,0-.07-.01-.11-.02l.02-.15c.68,.1,1.02,.15,1.71,.24,0,.06-.01,.09-.02,.15-.04,0-.07,0-.11-.02-.1-.01-.18,0-.24,.05-.05,.03-.09,.09-.13,.18-.03,.06-.06,.23-.1,.5-.2,1.44-.3,2.16-.5,3.6-.04,.28-.05,.46-.04,.53,0,.07,.04,.14,.09,.2,.05,.06,.12,.1,.22,.11,.05,0,.07,0,.11,.02Z"/><path class="m" d="M30.03,88.7l.02-.15,.11,.02c.1,.01,.18,0,.24-.04,.06-.04,.11-.11,.14-.19,.02-.05,.05-.22,.09-.51,.18-1.44,.27-2.16,.46-3.6,.04-.28,.05-.46,.04-.53,0-.07-.04-.14-.08-.2-.05-.06-.12-.09-.21-.11-.04,0-.07,0-.11-.02l.02-.15c.59,.08,.88,.11,1.47,.18,.39,.05,.7,.17,.92,.37,.27,.25,.46,.6,.57,1.06,.11,.46,.14,.97,.08,1.53-.04,.39-.11,.74-.22,1.06-.11,.32-.24,.58-.38,.78-.14,.2-.31,.35-.48,.47-.18,.11-.39,.19-.63,.23-.11,.02-.27,.02-.5,0-.62-.07-.93-.11-1.55-.19Zm1.93-5.01c-.2,1.71-.3,2.57-.51,4.28-.03,.23-.04,.37-.03,.42,0,.05,.03,.09,.06,.13,.04,.04,.1,.07,.19,.08,.28,.03,.52-.1,.7-.39,.25-.39,.42-1.03,.51-1.9,.07-.7,.07-1.27-.02-1.71-.07-.34-.18-.58-.33-.72-.11-.1-.3-.16-.57-.19Z"/><path class="m" d="M35.59,84.06c-.07,.9-.11,1.34-.18,2.24h.07c.21,.02,.38-.08,.49-.29,.11-.21,.2-.53,.25-.96,.04,0,.06,0,.09,0-.08,1.15-.12,1.73-.21,2.88h-.1c0-.32-.02-.58-.07-.79-.05-.21-.11-.35-.19-.42-.08-.08-.2-.12-.36-.13-.05,.62-.07,.93-.12,1.55-.02,.3-.03,.49-.02,.56,.01,.07,.04,.13,.08,.17,.04,.05,.11,.07,.21,.08,.08,0,.12,0,.21,.02,.32,.02,.59-.08,.8-.3,.21-.23,.37-.58,.49-1.06,.04,0,.06,0,.09,0-.1,.7-.16,1.05-.26,1.74-1.2-.08-1.8-.12-3-.24v-.15c.06,0,.08,0,.13,.01,.1,0,.18-.01,.25-.06,.05-.03,.09-.1,.12-.19,.02-.06,.05-.23,.07-.51,.13-1.45,.19-2.17,.32-3.62,.02-.25,.03-.4,.03-.46,0-.09-.03-.17-.07-.23-.05-.08-.14-.13-.24-.14h-.11v-.16c1.11,.1,1.66,.15,2.76,.22-.04,.65-.06,.98-.1,1.63-.04,0-.06,0-.09,0-.02-.4-.07-.69-.14-.87-.07-.18-.19-.31-.34-.41-.09-.05-.26-.09-.51-.11-.14-.01-.2-.02-.34-.03Z"/><path class="m" d="M38.81,83.94c.59,1.4,.89,2.1,1.52,3.49,.03-.95,.04-1.42,.07-2.37,0-.33-.01-.56-.07-.67-.07-.16-.2-.24-.38-.24,0-.06,0-.09,0-.15,.44,.01,.65,.02,1.09,.03,0,.06,0,.09,0,.15-.14,.03-.24,.06-.28,.11-.05,.05-.09,.12-.12,.23-.03,.11-.05,.29-.06,.55-.05,1.84-.08,2.76-.13,4.59h-.09c-.89-1.87-1.31-2.81-2.12-4.69-.07,1.4-.11,2.1-.18,3.5-.02,.32,.02,.53,.1,.65,.09,.12,.19,.18,.31,.18h.08v.15c-.5-.02-.75-.04-1.24-.06,0-.06,0-.09,0-.15,.19,0,.33-.05,.41-.16,.08-.12,.13-.32,.15-.62,.08-1.56,.13-2.33,.21-3.89-.03-.06-.04-.09-.06-.15-.06-.15-.12-.25-.17-.3-.05-.05-.13-.08-.23-.09,0-.06,0-.09,0-.15,.47,.03,.7,.04,1.17,.06Z"/><path class="m" d="M44.3,84.04c0,.6,0,.9,.02,1.49h-.09c-.06-.34-.12-.59-.18-.74s-.15-.27-.26-.36c-.06-.05-.17-.07-.32-.07-.1,0-.15,0-.25,0,0,1.7,0,2.56,0,4.26,0,.28,.01,.46,.03,.53,.02,.07,.06,.13,.11,.19,.06,.05,.14,.08,.23,.08h.12c0,.06,0,.09,0,.15-.73,0-1.09,0-1.82,0v-.15s.07,0,.12,0c.1,0,.18-.03,.24-.08,.04-.04,.08-.1,.11-.19,.02-.07,.03-.24,.03-.51,.02-1.7,.02-2.55,.04-4.26-.1,0-.14,0-.24,0-.22,0-.38,.07-.49,.23-.14,.22-.24,.53-.29,.93-.04,0-.06,0-.09,0,.01-.6,.02-.9,.03-1.49,1.18,.02,1.78,.03,2.96,.01Z"/><path class="m" d="M46.47,89.37v.15c-.72,.02-1.09,.03-1.82,.04,0-.06,0-.09,0-.15,.05,0,.07,0,.11,0,.1,0,.18-.03,.24-.09,.04-.04,.08-.11,.1-.2,.02-.06,.02-.24,.02-.51-.03-1.45-.04-2.18-.07-3.63,0-.28-.02-.46-.04-.53-.02-.07-.06-.13-.11-.18-.06-.05-.13-.08-.22-.08-.04,0-.07,0-.11,0,0-.06,0-.09,0-.15,.69,0,1.03-.02,1.72-.04,0,.06,0,.09,0,.15-.04,0-.07,0-.11,0-.1,0-.17,.04-.23,.09-.04,.04-.07,.11-.09,.2-.02,.07-.02,.24-.01,.51,.04,1.45,.06,2.18,.1,3.63,0,.28,.02,.46,.04,.53,.02,.07,.06,.13,.12,.18,.06,.05,.14,.08,.23,.07h.12Z"/><path class="m" d="M48.7,87.85c-.48,.03-.73,.04-1.21,.06-.05,.22-.07,.33-.12,.54-.04,.18-.06,.33-.05,.45,0,.15,.05,.27,.13,.34,.05,.04,.16,.07,.34,.08,0,.06,0,.09,0,.15-.46,.02-.69,.03-1.16,.04v-.15c.12-.03,.22-.12,.29-.26,.08-.14,.16-.42,.26-.84,.42-1.78,.62-2.67,1-4.45h.05c.57,1.78,.86,2.67,1.48,4.45,.15,.42,.26,.68,.35,.79,.06,.08,.15,.12,.26,.13,0,.06,0,.09,.01,.15-.67,.05-1.01,.07-1.68,.1v-.15s.03,0,.06,0c.14,0,.23-.04,.28-.11,.04-.04,.05-.11,.05-.19,0-.05-.01-.1-.02-.15,0-.02-.04-.12-.09-.3-.09-.27-.13-.41-.22-.68Zm-.1-.3c-.24-.75-.36-1.12-.6-1.87-.17,.77-.26,1.15-.43,1.92,.41-.02,.62-.03,1.03-.05Z"/><path class="m" d="M51.49,89.24c0-.06,0-.09-.01-.15h.11c.1-.02,.18-.05,.23-.1,.05-.05,.08-.13,.1-.22,.01-.06,0-.23-.02-.51-.12-1.45-.19-2.17-.31-3.62-.02-.28-.05-.46-.07-.52-.02-.07-.07-.13-.13-.18-.06-.05-.13-.07-.23-.06-.04,0-.07,0-.11,0,0-.06,0-.09-.01-.15,.59-.05,.88-.07,1.47-.13,.39-.04,.72,.02,.98,.17,.32,.19,.58,.49,.78,.92,.2,.43,.34,.92,.4,1.47,.04,.39,.05,.75,0,1.08-.04,.33-.11,.61-.21,.84-.1,.23-.22,.41-.37,.56-.15,.15-.34,.27-.56,.36-.1,.04-.26,.08-.49,.1-.62,.06-.93,.09-1.55,.14Zm.83-5.3c.16,1.72,.24,2.57,.41,4.29,.02,.23,.04,.37,.06,.42,.02,.05,.05,.09,.08,.11,.05,.04,.12,.05,.21,.04,.28-.03,.49-.21,.6-.53,.16-.44,.19-1.09,.1-1.97-.08-.7-.2-1.26-.38-1.67-.14-.32-.3-.53-.48-.63-.13-.07-.32-.09-.59-.07Z"/><path class="m" d="M57.1,88.47l.02,.15c-.72,.1-1.09,.15-1.81,.23l-.02-.15s.07,0,.11-.01c.1-.01,.18-.05,.23-.12,.04-.04,.06-.11,.08-.21,0-.07,0-.24-.04-.51-.18-1.44-.27-2.16-.45-3.6-.03-.28-.07-.45-.09-.52-.03-.07-.07-.13-.13-.17-.06-.05-.14-.06-.23-.05-.04,0-.07,0-.11,.01,0-.06-.01-.09-.02-.15,.69-.08,1.03-.13,1.71-.22,0,.06,.01,.09,.02,.15-.04,0-.07,0-.11,.02-.09,.01-.17,.05-.22,.12-.04,.04-.06,.11-.07,.21,0,.07,0,.24,.04,.51,.19,1.44,.29,2.16,.48,3.6,.04,.28,.07,.45,.1,.52,.03,.07,.08,.12,.14,.17,.06,.04,.14,.06,.24,.05,.05,0,.07,0,.11-.02Z"/><path class="m" d="M59.99,82.58c.01,.06,.02,.09,.03,.15-.11,.05-.2,.18-.26,.37-.04,.14-.09,.48-.14,1-.17,1.74-.27,2.61-.48,4.35-.03,0-.05,0-.08,.01-.75-1.66-1.11-2.49-1.82-4.16-.21-.5-.35-.8-.41-.88-.06-.08-.15-.13-.28-.14,0-.06-.01-.09-.02-.15,.63-.09,.94-.13,1.57-.23,0,.06,.01,.09,.02,.15h-.05c-.14,.03-.23,.08-.28,.14-.03,.05-.04,.11-.03,.19,0,.05,.02,.1,.05,.17,.02,.06,.09,.23,.21,.51,.45,1.04,.68,1.56,1.14,2.6,.11-1.01,.17-1.51,.26-2.52,.03-.3,.04-.51,.04-.61,0-.1,0-.19-.02-.26-.01-.08-.04-.15-.08-.21-.04-.06-.08-.1-.14-.12-.08-.03-.17-.04-.29-.02,0-.06-.02-.09-.02-.15,.43-.07,.64-.11,1.07-.18Z"/><path class="m" d="M62.87,87.5l.03,.15c-.72,.14-1.08,.21-1.8,.34-.01-.06-.02-.09-.03-.15l.11-.02c.1-.02,.18-.06,.23-.13,.04-.05,.06-.12,.07-.21,0-.07-.02-.24-.07-.51-.26-1.43-.39-2.14-.66-3.57-.05-.28-.09-.45-.12-.51-.03-.07-.08-.12-.14-.16-.06-.04-.14-.06-.23-.04-.04,0-.06,.01-.11,.02-.01-.06-.02-.09-.03-.15,.68-.12,1.02-.19,1.7-.32,.01,.06,.02,.09,.03,.15l-.11,.02c-.09,.02-.17,.06-.21,.13-.03,.04-.05,.12-.06,.21,0,.07,.02,.24,.07,.51,.27,1.43,.41,2.14,.68,3.57,.05,.28,.1,.45,.13,.51,.03,.07,.08,.12,.15,.16,.07,.04,.15,.05,.24,.03,.05,0,.07-.01,.11-.02Z"/><path class="m" d="M63.17,81.96c.92,1.2,1.4,1.8,2.36,2.98-.21-.93-.32-1.39-.53-2.31-.07-.32-.15-.53-.23-.64-.11-.14-.26-.18-.44-.14-.01-.06-.02-.09-.03-.15,.43-.1,.64-.15,1.07-.25l.03,.15c-.13,.06-.21,.12-.25,.18-.04,.06-.06,.14-.06,.25,0,.11,.03,.29,.09,.55,.42,1.79,.62,2.69,1.04,4.48-.03,0-.05,.01-.09,.02-1.34-1.58-1.99-2.38-3.25-4,.28,1.37,.43,2.06,.71,3.44,.06,.31,.15,.51,.26,.6,.11,.09,.23,.12,.34,.1,.03,0,.05-.01,.08-.02,.01,.06,.02,.09,.03,.15-.49,.1-.73,.15-1.22,.25l-.03-.15c.19-.04,.31-.13,.36-.26,.05-.13,.04-.35-.01-.63-.31-1.53-.47-2.29-.78-3.82-.04-.05-.06-.08-.1-.13-.1-.13-.18-.21-.24-.25-.06-.03-.14-.04-.24-.03-.01-.06-.02-.09-.03-.15,.46-.09,.69-.14,1.15-.24Z"/><path class="m" d="M65.59,81.42c.67-.16,1-.24,1.66-.41,.02,.06,.02,.09,.04,.15-.03,0-.05,.01-.08,.02-.13,.03-.21,.07-.24,.13-.04,.06-.05,.12-.05,.21,0,.08,.04,.27,.11,.58,.27,1.05,.4,1.57,.66,2.62,.12,.48,.22,.79,.31,.93,.08,.14,.19,.25,.32,.33,.13,.08,.28,.09,.44,.05,.18-.05,.32-.15,.42-.32,.09-.16,.14-.37,.15-.61,0-.24-.07-.65-.23-1.22-.23-.87-.35-1.3-.59-2.17-.06-.24-.12-.4-.18-.5-.06-.09-.12-.16-.17-.18-.09-.04-.2-.04-.33-.01l-.04-.15c.44-.12,.67-.18,1.11-.3l.04,.15-.07,.02c-.09,.02-.16,.08-.2,.15-.04,.08-.06,.18-.06,.31,0,.09,.03,.24,.09,.46,.22,.81,.33,1.21,.55,2.02,.17,.63,.27,1.08,.29,1.38,.02,.29-.04,.58-.18,.87-.14,.29-.39,.48-.74,.57-.29,.08-.54,.07-.73-.01-.26-.11-.47-.29-.62-.53-.15-.24-.29-.59-.39-1.03-.26-1.05-.38-1.58-.64-2.63-.08-.31-.13-.5-.17-.57-.04-.07-.09-.12-.15-.15-.06-.03-.16-.03-.3,0-.01-.06-.02-.09-.03-.15Z"/><path class="m" d="M71.21,79.76c.23,.7,.34,1.05,.56,1.75-.04,.01-.06,.02-.1,.03-.18-.43-.4-.75-.66-.96-.26-.22-.49-.29-.7-.23-.16,.05-.27,.15-.32,.32-.05,.17-.05,.35,0,.53,.03,.12,.08,.22,.14,.3,.08,.11,.19,.21,.33,.3,.1,.06,.32,.17,.66,.3,.47,.19,.82,.4,1.03,.63,.21,.23,.38,.52,.48,.86,.14,.44,.14,.85,.02,1.24-.12,.38-.35,.63-.69,.73-.11,.03-.21,.04-.32,.04-.1,0-.24-.04-.41-.09-.09-.03-.17-.04-.22-.02-.04,.01-.08,.05-.12,.12-.03,.07-.05,.16-.05,.27-.04,.01-.06,.02-.09,.03-.23-.8-.34-1.2-.56-2.01l.09-.03c.23,.54,.49,.93,.78,1.17,.29,.24,.56,.32,.8,.25,.19-.05,.31-.18,.37-.37,.06-.19,.06-.39,0-.6-.04-.13-.1-.24-.17-.34-.08-.1-.17-.2-.29-.28-.12-.08-.31-.17-.57-.28-.37-.15-.64-.29-.82-.42-.18-.13-.33-.29-.46-.47s-.23-.4-.3-.65c-.12-.42-.13-.81-.02-1.16,.1-.35,.29-.57,.58-.65,.1-.03,.21-.04,.32-.03,.08,0,.19,.04,.32,.09,.13,.05,.22,.07,.26,.06,.04-.01,.07-.04,.08-.09,.01-.05,0-.16-.02-.32l.07-.02Z"/></g></g></g></g></svg>